<mxfile host="65bd71144e" modified="2020-10-13T14:33:54.105Z" agent="5.0 (X11; Linux x86_64) AppleWebKit/537.36 (KHTML, like Gecko) Code/1.50.0 Chrome/83.0.4103.122 Electron/9.2.1 Safari/537.36" etag="iFBTcb83JpzzLQ9zkZhT" version="13.6.5">
    <diagram id="fKrREQkqZchyE4ESXf7V" name="Page-1">
        <mxGraphModel dx="717" dy="667" grid="1" gridSize="10" guides="1" tooltips="1" connect="1" arrows="1" fold="1" page="1" pageScale="1" pageWidth="827" pageHeight="1169" math="0" shadow="0">
            <root>
                <mxCell id="0"/>
                <mxCell id="1" parent="0"/>
                <mxCell id="34" value="" style="rounded=0;whiteSpace=wrap;html=1;" parent="1" vertex="1">
                    <mxGeometry x="65" y="280" width="670" height="690" as="geometry"/>
                </mxCell>
                <mxCell id="36" style="edgeStyle=orthogonalEdgeStyle;rounded=0;orthogonalLoop=1;jettySize=auto;html=1;" parent="1" source="3" target="26" edge="1">
                    <mxGeometry relative="1" as="geometry"/>
                </mxCell>
                <mxCell id="3" value="Particelle" style="rounded=1;whiteSpace=wrap;html=1;strokeWidth=2;fontStyle=1" parent="1" vertex="1">
                    <mxGeometry x="340" y="40" width="120" height="60" as="geometry"/>
                </mxCell>
                <mxCell id="38" value="1" style="edgeStyle=orthogonalEdgeStyle;rounded=0;orthogonalLoop=1;jettySize=auto;html=1;" parent="1" source="26" target="29" edge="1">
                    <mxGeometry relative="1" as="geometry"/>
                </mxCell>
                <mxCell id="26" value="Inizializzazione" style="whiteSpace=wrap;html=1;rounded=1;strokeWidth=2;fontStyle=0" parent="1" vertex="1">
                    <mxGeometry x="340" y="170" width="120" height="60" as="geometry"/>
                </mxCell>
                <mxCell id="29" value="" style="whiteSpace=wrap;html=1;rounded=1;strokeWidth=2;fontStyle=0" parent="1" vertex="1">
                    <mxGeometry x="190" y="300" width="420" height="210" as="geometry"/>
                </mxCell>
                <mxCell id="40" value="2" style="edgeStyle=orthogonalEdgeStyle;rounded=0;orthogonalLoop=1;jettySize=auto;html=1;" parent="1" source="32" edge="1">
                    <mxGeometry relative="1" as="geometry">
                        <mxPoint x="440" y="430" as="targetPoint"/>
                    </mxGeometry>
                </mxCell>
                <mxCell id="35" value="Loop Time-Step&lt;br&gt;Pass Risolutivo&lt;br&gt;&lt;i&gt;solve(step)&lt;/i&gt;" style="text;html=1;strokeColor=none;fillColor=none;align=center;verticalAlign=middle;whiteSpace=wrap;rounded=0;" parent="1" vertex="1">
                    <mxGeometry x="80" y="290" width="100" height="40" as="geometry"/>
                </mxCell>
                <mxCell id="42" value="" style="edgeStyle=orthogonalEdgeStyle;rounded=0;orthogonalLoop=1;jettySize=auto;html=1;" parent="1" source="39" edge="1">
                    <mxGeometry relative="1" as="geometry">
                        <Array as="points">
                            <mxPoint x="500" y="470"/>
                            <mxPoint x="400" y="470"/>
                        </Array>
                        <mxPoint x="400" y="490" as="targetPoint"/>
                    </mxGeometry>
                </mxCell>
                <mxCell id="43" value="3" style="edgeLabel;html=1;align=center;verticalAlign=middle;resizable=0;points=[];" parent="42" vertex="1" connectable="0">
                    <mxGeometry x="-0.3833" y="-3" relative="1" as="geometry">
                        <mxPoint x="-23" y="3" as="offset"/>
                    </mxGeometry>
                </mxCell>
                <mxCell id="44" value="Generazione" style="text;html=1;strokeColor=none;fillColor=none;align=center;verticalAlign=middle;whiteSpace=wrap;rounded=0;" vertex="1" parent="1">
                    <mxGeometry x="200" y="310" width="100" height="10" as="geometry"/>
                </mxCell>
                <mxCell id="47" value="1.1" style="edgeStyle=orthogonalEdgeStyle;rounded=0;orthogonalLoop=1;jettySize=auto;html=1;entryX=0;entryY=0.5;entryDx=0;entryDy=0;" edge="1" parent="1" source="45" target="48">
                    <mxGeometry relative="1" as="geometry">
                        <mxPoint x="400" y="410" as="targetPoint"/>
                        <mxPoint as="offset"/>
                    </mxGeometry>
                </mxCell>
                <mxCell id="45" value="&lt;span style=&quot;font-weight: normal&quot;&gt;Cella attorno al punto di Inlet&lt;/span&gt;" style="rounded=1;whiteSpace=wrap;html=1;strokeWidth=2;fontStyle=1" vertex="1" parent="1">
                    <mxGeometry x="210" y="330" width="140" height="70" as="geometry"/>
                </mxCell>
                <mxCell id="50" value="" style="edgeStyle=orthogonalEdgeStyle;rounded=0;orthogonalLoop=1;jettySize=auto;html=1;" edge="1" parent="1" source="48" target="49">
                    <mxGeometry relative="1" as="geometry">
                        <Array as="points">
                            <mxPoint x="520" y="460"/>
                        </Array>
                    </mxGeometry>
                </mxCell>
                <mxCell id="51" value="1.2" style="edgeLabel;html=1;align=center;verticalAlign=middle;resizable=0;points=[];" vertex="1" connectable="0" parent="50">
                    <mxGeometry x="-0.2333" y="-1" relative="1" as="geometry">
                        <mxPoint x="1" y="-16" as="offset"/>
                    </mxGeometry>
                </mxCell>
                <mxCell id="48" value="&lt;span style=&quot;font-weight: normal&quot;&gt;mappa coordinate da globali a locali&lt;/span&gt;" style="rounded=1;whiteSpace=wrap;html=1;strokeWidth=2;fontStyle=1" vertex="1" parent="1">
                    <mxGeometry x="450" y="330" width="140" height="70" as="geometry"/>
                </mxCell>
                <mxCell id="49" value="&lt;span style=&quot;font-weight: normal&quot;&gt;Inserisci particella in ParticleHandler&lt;/span&gt;" style="whiteSpace=wrap;html=1;rounded=1;fontStyle=1;strokeWidth=2;" vertex="1" parent="1">
                    <mxGeometry x="340" y="430" width="120" height="60" as="geometry"/>
                </mxCell>
                <mxCell id="53" style="edgeStyle=orthogonalEdgeStyle;rounded=0;orthogonalLoop=1;jettySize=auto;html=1;startArrow=classic;startFill=1;endArrow=none;endFill=0;" edge="1" parent="1" source="52" target="29">
                    <mxGeometry relative="1" as="geometry"/>
                </mxCell>
                <mxCell id="54" value="2" style="edgeLabel;html=1;align=center;verticalAlign=middle;resizable=0;points=[];" vertex="1" connectable="0" parent="53">
                    <mxGeometry x="0.221" y="-1" relative="1" as="geometry">
                        <mxPoint x="-1" as="offset"/>
                    </mxGeometry>
                </mxCell>
                <mxCell id="52" value="" style="whiteSpace=wrap;html=1;rounded=1;strokeWidth=2;fontStyle=0" vertex="1" parent="1">
                    <mxGeometry x="190" y="560" width="420" height="330" as="geometry"/>
                </mxCell>
                <mxCell id="55" value="Avvezione" style="text;html=1;strokeColor=none;fillColor=none;align=center;verticalAlign=middle;whiteSpace=wrap;rounded=0;" vertex="1" parent="1">
                    <mxGeometry x="200" y="570" width="100" height="10" as="geometry"/>
                </mxCell>
                <mxCell id="58" value="2.1" style="edgeStyle=orthogonalEdgeStyle;rounded=0;orthogonalLoop=1;jettySize=auto;html=1;startArrow=none;startFill=0;endArrow=classic;endFill=1;" edge="1" parent="1" source="56" target="57">
                    <mxGeometry relative="1" as="geometry">
                        <Array as="points">
                            <mxPoint x="390" y="622"/>
                            <mxPoint x="390" y="622"/>
                        </Array>
                    </mxGeometry>
                </mxCell>
                <mxCell id="56" value="&lt;span style=&quot;font-weight: 400&quot;&gt;Check particelle fuori dal dominio&lt;/span&gt;" style="rounded=1;whiteSpace=wrap;html=1;strokeWidth=2;fontStyle=1" vertex="1" parent="1">
                    <mxGeometry x="210" y="587" width="140" height="70" as="geometry"/>
                </mxCell>
                <mxCell id="60" value="2.2" style="edgeStyle=orthogonalEdgeStyle;rounded=0;orthogonalLoop=1;jettySize=auto;html=1;startArrow=none;startFill=0;endArrow=classic;endFill=1;" edge="1" parent="1" source="57" target="59">
                    <mxGeometry relative="1" as="geometry"/>
                </mxCell>
                <mxCell id="57" value="&lt;span style=&quot;font-weight: 400&quot;&gt;Interpolazione velocitÃ  flusso e particella&lt;/span&gt;" style="rounded=1;whiteSpace=wrap;html=1;strokeWidth=2;fontStyle=1" vertex="1" parent="1">
                    <mxGeometry x="430" y="587" width="140" height="70" as="geometry"/>
                </mxCell>
                <mxCell id="62" value="2.3" style="edgeStyle=orthogonalEdgeStyle;rounded=0;orthogonalLoop=1;jettySize=auto;html=1;startArrow=none;startFill=0;endArrow=classic;endFill=1;" edge="1" parent="1" source="59" target="61">
                    <mxGeometry relative="1" as="geometry"/>
                </mxCell>
                <mxCell id="59" value="&lt;span style=&quot;font-weight: 400&quot;&gt;Interpolazione temperatura flusso e particella&lt;/span&gt;" style="rounded=1;whiteSpace=wrap;html=1;strokeWidth=2;fontStyle=1" vertex="1" parent="1">
                    <mxGeometry x="430" y="690" width="140" height="70" as="geometry"/>
                </mxCell>
                <mxCell id="64" value="2.4" style="edgeStyle=orthogonalEdgeStyle;rounded=0;orthogonalLoop=1;jettySize=auto;html=1;startArrow=none;startFill=0;endArrow=classic;endFill=1;" edge="1" parent="1" source="61" target="63">
                    <mxGeometry relative="1" as="geometry"/>
                </mxCell>
                <mxCell id="61" value="&lt;span style=&quot;font-weight: 400&quot;&gt;Correzione posizione in base a coefficienti attrito e galleggiamento&lt;/span&gt;" style="rounded=1;whiteSpace=wrap;html=1;strokeWidth=2;fontStyle=1" vertex="1" parent="1">
                    <mxGeometry x="210" y="690" width="140" height="70" as="geometry"/>
                </mxCell>
                <mxCell id="63" value="&lt;span style=&quot;font-weight: 400&quot;&gt;Computazione eventuale rimbalzo e velocitÃ  smorzata&lt;/span&gt;" style="rounded=1;whiteSpace=wrap;html=1;strokeWidth=2;fontStyle=1" vertex="1" parent="1">
                    <mxGeometry x="210" y="800" width="140" height="70" as="geometry"/>
                </mxCell>
            </root>
        </mxGraphModel>
    </diagram>
</mxfile>